<?xml version="1.0" encoding="utf-8"?>
<!-- Generator: Adobe Illustrator 28.1.0, SVG Export Plug-In . SVG Version: 6.00 Build 0)  -->
<svg version="1.1" id="Layer_1" xmlns="http://www.w3.org/2000/svg" xmlns:xlink="http://www.w3.org/1999/xlink" x="0px" y="0px"
	 viewBox="0 0 2303.5 2409.3" style="enable-background:new 0 0 2303.5 2409.3;" xml:space="preserve">
<style type="text/css">
	.st0{fill:#009BDE;}
	.st1{fill:#3369AD;}
</style>
<path class="st0" d="M868.6,747.9h377.6v75.5H868.6V747.9 M1246.1,1503l176.2,151l176.2-151l176.2,151l176.2-151l176.2,151
	c117.5-100.7,176.2-201.4,176.2-302.1V596.8H491V1503c0,76,9.6,151.8,28.5,225.4s47,144.6,83.7,211.2
	c36.6,66.6,81.5,128.4,133.6,183.8c52,55.4,110.9,104.1,175.1,144.8s133.3,73.2,205.6,96.7s147.3,37.8,223.2,42.5
	c75.9,4.8,152.1-0.1,226.7-14.3c74.7-14.3,147.3-37.9,216.1-70.3C1425.2,2200.9,1246.1,1927.6,1246.1,1503"/>
<polygon class="st1" points="268.2,747.9 222.9,747.9 222.9,596.8 238,596.8 238,265.9 0.1,186.6 868.6,0.1 1737,186.6 
	1246.1,350.3 1246.1,523.2 491,523.2 491,350.3 253.1,271 253.1,596.8 268.2,596.8 "/>
</svg>
